<?xml version="1.0" encoding="UTF-8"?>
<svg version="1.1" xmlns="http://www.w3.org/2000/svg" width="428" height="132">
<path d="M0 0 C6.909375 -0.020625 13.81875 -0.04125 20.9375 -0.0625 C23.12109131 -0.071604 25.30468262 -0.08070801 27.55444336 -0.09008789 C29.2745762 -0.09300698 30.99470972 -0.09555555 32.71484375 -0.09765625 C33.61658325 -0.10277222 34.51832275 -0.10788818 35.4473877 -0.11315918 C37.63191745 -0.11346882 39.8163633 -0.0624587 42 0 C43 1 43 1 43.09765625 4.81640625 C43.09191138 6.39847047 43.07889593 7.98051031 43.0625 9.5625 C43.041875 12.346875 43.02125 15.13125 43 18 C35.41 18.33 27.82 18.66 20 19 C20 32.2 20 45.4 20 59 C27.19522782 58.9604134 27.19522782 58.9604134 34.39038086 58.90991211 C35.28120361 58.90741455 36.17202637 58.90491699 37.08984375 58.90234375 C38.00628662 58.89710693 38.92272949 58.89187012 39.86694336 58.88647461 C42 59 42 59 43 60 C43 65.61 43 71.22 43 77 C28.81 77 14.62 77 0 77 C0 51.59 0 26.18 0 0 Z " fill="#5F5E5C" transform="translate(4,21)"/>
<path d="M0 0 C6.93 0 13.86 0 21 0 C25.18923572 7.58052177 29.17564133 15.22922866 33 23 C36.92892477 16.41027603 40.69161152 9.85689992 43.859375 2.86328125 C45 1 45 1 48 0 C50.73865287 -0.07051114 53.45027588 -0.09357765 56.1875 -0.0625 C56.93708984 -0.05798828 57.68667969 -0.05347656 58.45898438 -0.04882812 C60.30602383 -0.03706354 62.15302213 -0.01912865 64 0 C65 3 65 3 64.32250977 4.83081055 C63.94924561 5.50926025 63.57598145 6.18770996 63.19140625 6.88671875 C62.77310547 7.66208984 62.35480469 8.43746094 61.92382812 9.23632812 C61.47458984 10.04521484 61.02535156 10.85410156 60.5625 11.6875 C56.96595164 18.27091744 53.52058499 24.90895157 50.18136597 31.62548828 C46.61505826 38.79255673 42.96527998 45.91561342 39.2980957 53.03149414 C38.16880833 55.22378624 37.04237646 57.41753125 35.91601562 59.61132812 C35.18767075 61.02612958 34.45916147 62.44084642 33.73046875 63.85546875 C33.39919479 64.50130417 33.06792084 65.14713959 32.72660828 65.81254578 C31.83031739 67.5482505 30.91574829 69.27448173 30 71 C29.49887695 71.95704834 28.99775391 72.91409668 28.48144531 73.90014648 C27 76 27 76 23.56640625 76.7421875 C22.23281364 76.81105226 20.89771237 76.85451736 19.5625 76.875 C18.89412109 76.90851563 18.22574219 76.94203125 17.53710938 76.9765625 C14.19464984 77.10906833 11.18910903 77.06031758 8 76 C9.27888464 71.86610829 10.83716434 68.18051994 12.890625 64.375 C13.43460937 63.33859375 13.97859375 62.3021875 14.5390625 61.234375 C15.68312203 59.07163232 16.8394819 56.9153533 18.0078125 54.765625 C18.54664063 53.72921875 19.08546875 52.6928125 19.640625 51.625 C20.14110352 50.68914062 20.64158203 49.75328125 21.15722656 48.7890625 C22.51607578 44.2921061 20.67376454 41.37805766 18.69067383 37.32202148 C18.20107178 36.43071533 17.71146973 35.53940918 17.20703125 34.62109375 C16.66199951 33.62295654 16.11696777 32.62481934 15.55541992 31.59643555 C14.98025635 30.55398682 14.40509277 29.51153809 13.8125 28.4375 C13.22895752 27.36862549 12.64541504 26.29975098 12.04418945 25.19848633 C9.57209666 20.67141697 7.0859117 16.15234827 4.5859375 11.640625 C3.95945312 10.50109375 3.33296875 9.3615625 2.6875 8.1875 C2.15511719 7.23230469 1.62273437 6.27710938 1.07421875 5.29296875 C0 3 0 3 0 0 Z " fill="#646260" transform="translate(355,45)"/>
<path d="M0 0 C6.95286891 7.18970629 7.35546875 14.8150505 7.35546875 24.53515625 C-4.52453125 24.86515625 -16.40453125 25.19515625 -28.64453125 25.53515625 C-27.99808464 30.41730512 -27.99808464 30.41730512 -25.64453125 33.53515625 C-21.45479396 34.83570338 -17.7156031 34.95912219 -13.64453125 33.34765625 C-11.24444144 31.51011773 -11.24444144 31.51011773 -10.64453125 27.53515625 C-4.70453125 27.53515625 1.23546875 27.53515625 7.35546875 27.53515625 C6.98128106 33.70925321 6.59926688 37.74728143 2.35546875 42.53515625 C-5.22330479 48.70791298 -14.06021301 50.33955439 -23.64453125 49.53515625 C-32.1204827 48.39539763 -39.09391475 44.16931444 -44.390625 37.47265625 C-49.27396062 29.92706601 -49.55591196 21.57528726 -48.24609375 12.89453125 C-46.62986041 6.05177713 -43.22633764 1.73849915 -37.64453125 -2.46484375 C-25.91506837 -9.40594957 -10.43620599 -9.29590794 0 0 Z M-27.64453125 8.53515625 C-27.97453125 10.18515625 -28.30453125 11.83515625 -28.64453125 13.53515625 C-22.70453125 13.53515625 -16.76453125 13.53515625 -10.64453125 13.53515625 C-10.97453125 11.88515625 -11.30453125 10.23515625 -11.64453125 8.53515625 C-17.41441459 4.68856736 -21.68704979 5.03075539 -27.64453125 8.53515625 Z " fill="#63615F" transform="translate(160.64453125,50.46484375)"/>
<path d="M0 0 C4.61705436 4.7489702 5.52919585 9.76196682 5.52738953 16.14170837 C5.51190567 16.98053055 5.49642181 17.81935272 5.48046875 18.68359375 C5.47622391 19.56153091 5.47197906 20.43946808 5.46760559 21.3440094 C5.4509229 24.1254958 5.41329085 26.90623564 5.375 29.6875 C5.35993968 31.58267177 5.34625364 33.47785498 5.33398438 35.37304688 C5.30361568 39.99921119 5.2448762 44.62377807 5.1875 49.25 C-1.0825 49.25 -7.3525 49.25 -13.8125 49.25 C-13.86857422 45.62064453 -13.86857422 45.62064453 -13.92578125 41.91796875 C-13.97199252 39.57469642 -14.02322743 37.2315841 -14.07495117 34.88842773 C-14.10820536 33.25994591 -14.13623584 31.63134869 -14.15893555 30.00268555 C-14.19247357 27.66144639 -14.24478585 25.32126514 -14.30078125 22.98046875 C-14.30717117 22.25224411 -14.3135611 21.52401947 -14.32014465 20.77372742 C-14.40499604 17.85672638 -14.48078853 15.74698137 -16.12573242 13.2824707 C-18.93767828 11.56127819 -21.61056242 12.02129017 -24.8125 12.25 C-25.8025 12.58 -26.7925 12.91 -27.8125 13.25 C-28.77792018 17.36248383 -29.00739963 21.3015157 -29.12890625 25.51953125 C-29.14968735 26.20053391 -29.17046844 26.88153656 -29.19187927 27.58317566 C-29.25687878 29.74285508 -29.31602712 31.90264846 -29.375 34.0625 C-29.4182325 35.53321456 -29.46184825 37.00391791 -29.50585938 38.47460938 C-29.61322494 42.06629155 -29.71266514 45.65806912 -29.8125 49.25 C-36.0825 49.25 -42.3525 49.25 -48.8125 49.25 C-48.83714071 41.86271409 -48.8553316 34.47545188 -48.86743164 27.08813477 C-48.87247363 24.57283105 -48.87930703 22.05753028 -48.88793945 19.54223633 C-48.90001094 15.93570225 -48.90572949 12.32920677 -48.91015625 8.72265625 C-48.91531754 7.59038101 -48.92047882 6.45810577 -48.92579651 5.29151917 C-48.92587204 4.25051559 -48.92594757 3.20951202 -48.92602539 2.13696289 C-48.928246 1.21540909 -48.93046661 0.29385529 -48.93275452 -0.65562439 C-48.8125 -2.75 -48.8125 -2.75 -47.8125 -3.75 C-44.94982433 -3.82325168 -42.111781 -3.84238205 -39.25 -3.8125 C-38.44369141 -3.80798828 -37.63738281 -3.80347656 -36.80664062 -3.79882812 C-34.80856244 -3.78700518 -32.81052217 -3.76906914 -30.8125 -3.75 C-30.1525 -2.43 -29.4925 -1.11 -28.8125 0.25 C-27.20375 -0.7090625 -27.20375 -0.7090625 -25.5625 -1.6875 C-16.75329402 -6.67351059 -8.36249447 -5.20332989 0 0 Z " fill="#636260" transform="translate(224.8125,48.75)"/>
<path d="M0 0 C1 1 1 1 1.09765625 4.59765625 C1.0909822 6.08596867 1.07902183 7.57426432 1.0625 9.0625 C1.05798828 9.82111328 1.05347656 10.57972656 1.04882812 11.36132812 C1.0370068 13.24091871 1.01907078 15.12046899 1 17 C-2.3 16.67 -5.6 16.34 -9 16 C-10.42258812 19.82320557 -11.24042276 22.91281305 -11 27 C-8.36372112 28.31813944 -6.33729343 29 -3.375 29 C-2.59125 29 -1.8075 29 -1 29 C0 30 0 30 0.09765625 33.37890625 C0.09098369 34.77347077 0.07902532 36.16801743 0.0625 37.5625 C0.05798828 38.27341797 0.05347656 38.98433594 0.04882812 39.71679688 C0.03700864 41.47790013 0.01907263 43.23896036 0 45 C-5.445 45.495 -5.445 45.495 -11 46 C-11.33 57.88 -11.66 69.76 -12 82 C-17.94 82 -23.88 82 -30 82 C-30 70.12 -30 58.24 -30 46 C-32.31 45.67 -34.62 45.34 -37 45 C-37.02685095 42.52076199 -37.04676547 40.0418116 -37.0625 37.5625 C-37.07506836 36.50192383 -37.07506836 36.50192383 -37.08789062 35.41992188 C-37.09653588 33.61306441 -37.05220011 31.80612397 -37 30 C-36 29 -36 29 -32.9375 28.9375 C-31.4834375 28.9684375 -31.4834375 28.9684375 -30 29 C-30.08701172 27.76636719 -30.08701172 27.76636719 -30.17578125 26.5078125 C-30.49881647 18.51499825 -29.87148894 12.52284112 -25 6 C-17.70035166 -1.48641972 -9.82973551 -3.33393655 0 0 Z " fill="#605E5C" transform="translate(353,16)"/>
<path d="M0 0 C5.28 0 10.56 0 16 0 C20.80833808 9.03384731 24.38781619 18.44384801 28 28 C30.40265025 25.59734975 31.11295487 23.53540257 32.34765625 20.37109375 C33.00797852 18.69563477 33.00797852 18.69563477 33.68164062 16.98632812 C34.13732422 15.81521484 34.59300781 14.64410156 35.0625 13.4375 C35.96780376 11.12281731 36.87523913 8.80896679 37.78515625 6.49609375 C38.38662476 4.95199829 38.38662476 4.95199829 39.00024414 3.37670898 C40 1 40 1 41 0 C43.69654854 -0.07319621 46.36691458 -0.09242537 49.0625 -0.0625 C49.82111328 -0.05798828 50.57972656 -0.05347656 51.36132812 -0.04882812 C53.24091871 -0.0370068 55.12046899 -0.01907078 57 0 C58.27368576 3.82105727 57.49133045 4.95269421 56.0078125 8.64453125 C55.5538208 9.78696289 55.0998291 10.92939453 54.63208008 12.10644531 C54.12997358 13.34189994 53.62760824 14.5772494 53.125 15.8125 C52.62123904 17.06968675 52.11823334 18.32717639 51.6159668 19.58496094 C50.09053746 23.3953801 48.54664022 27.19815158 47 31 C46.30269775 32.71872314 46.30269775 32.71872314 45.59130859 34.47216797 C43.07994178 40.65605136 40.54918042 46.8316128 38 53 C31.73 53 25.46 53 19 53 C15.56513512 44.62149782 12.14744538 36.23621196 8.74761963 27.84344482 C8.02663609 26.06567799 7.30316049 24.28892245 6.57958984 22.51220703 C5.29302981 19.34539749 4.01952013 16.17367212 2.75 13 C2.35562744 12.03441162 1.96125488 11.06882324 1.55493164 10.07397461 C1.20164795 9.18331299 0.84836426 8.29265137 0.484375 7.375 C0.01596191 6.21097656 0.01596191 6.21097656 -0.46191406 5.0234375 C-1 3 -1 3 0 0 Z " fill="#646361" transform="translate(53,45)"/>
<path d="M0 0 C6.27 0 12.54 0 19 0 C19.02505615 1.43835205 19.0501123 2.8767041 19.07592773 4.35864258 C19.16998415 9.68686077 19.27020925 15.01494805 19.37231445 20.34301758 C19.41566999 22.65060365 19.4573446 24.95822194 19.49731445 27.26586914 C19.55500183 30.57968867 19.61870092 33.89334597 19.68359375 37.20703125 C19.70030624 38.2414888 19.71701874 39.27594635 19.73423767 40.3417511 C19.75418289 41.3025206 19.77412811 42.2632901 19.79467773 43.25317383 C19.81799416 44.52225334 19.81799416 44.52225334 19.84178162 45.81697083 C19.92274103 48.17959487 19.92274103 48.17959487 21 51 C23.31 51.99 25.62 52.98 28 54 C28 59.28 28 64.56 28 70 C18.16809539 69.59033731 11.79971099 68.8606371 4.125 62.6875 C-0.52245999 56.80983001 -0.37614992 49.76359929 -0.625 42.5625 C-0.66367188 41.64017578 -0.70234375 40.71785156 -0.7421875 39.76757812 C-0.83568676 37.51190857 -0.9214391 35.25623084 -1 33 C-2.32 32.67 -3.64 32.34 -5 32 C-5 26.39 -5 20.78 -5 15 C-3.35 15 -1.7 15 0 15 C0 10.05 0 5.1 0 0 Z " fill="#62615F" transform="translate(242,30)"/>
<path d="M0 0 C5.94 0 11.88 0 18 0 C18 17.49 18 34.98 18 53 C11.73 53 5.46 53 -1 53 C-1.02464071 45.61271409 -1.0428316 38.22545188 -1.05493164 30.83813477 C-1.05997363 28.32283105 -1.06680703 25.80753028 -1.07543945 23.29223633 C-1.08751094 19.68570225 -1.09322949 16.07920677 -1.09765625 12.47265625 C-1.10281754 11.34038101 -1.10797882 10.20810577 -1.11329651 9.04151917 C-1.11337204 8.00051559 -1.11344757 6.95951202 -1.11352539 5.88696289 C-1.115746 4.96540909 -1.11796661 4.04385529 -1.12025452 3.09437561 C-1 1 -1 1 0 0 Z " fill="#656362" transform="translate(291,45)"/>
<path d="M0 0 C4.57627119 3.15254237 4.57627119 3.15254237 6 6 C6.42071592 9.05920574 6.48514117 11.9467746 6 15 C3.81840855 17.75569447 2.12822506 19.43588747 -1 21 C-5.5406461 21.12272016 -8.98402339 20.86358012 -12.5 17.875 C-14.31462868 14.39696169 -14.93105717 11.92974122 -15 8 C-13.70581217 4.04130781 -12.6242968 2.43007113 -9.1875 0.0625 C-5.48129958 -1.17290014 -3.70768904 -1.18330501 0 0 Z " fill="#6FB5D3" transform="translate(304,16)"/>
<path d="M0 0 C3.24660489 1.88893375 5.37228213 3.28259212 6.6953125 6.90234375 C7.56215284 11.70685243 6.75121522 14.87317717 4 19 C-0.01858595 21.6790573 -3.27641721 21.69610694 -8 21 C-10.87029869 19.20606332 -12.49131638 18.01736724 -14 15 C-14.55512815 10.36786507 -14.6364242 7.01827873 -12.125 3 C-8.4626433 -0.44692395 -4.87922542 -0.7785035 0 0 Z " fill="#70B4D2" transform="translate(41,49)"/>
<path d="M0 0 C2.16605008 4.07217415 2.33997369 7.41996865 1.5625 11.9375 C0.125 14.9375 0.125 14.9375 -2.4375 16.9375 C-6.65194044 18.19554192 -10.14681372 18.38643436 -14.3125 16.9375 C-17.26765854 14.15617431 -18.33224997 11.83838244 -19.4375 7.9375 C-18.68878415 3.02925164 -17.41154754 -0.02352247 -13.4375 -3.0625 C-8.70865468 -5.34539084 -3.76067175 -3.18210687 0 0 Z " fill="#77B8D4" transform="translate(282.4375,49.0625)"/>
<path d="M0 0 C4.57627119 3.15254237 4.57627119 3.15254237 6 6 C6.42535668 10.23720693 6.68440794 13.83080311 4.5 17.5625 C4.005 18.036875 3.51 18.51125 3 19 C2.34 18.67 1.68 18.34 1 18 C1.309375 17.319375 1.61875 16.63875 1.9375 15.9375 C3.13370649 12.63034088 3.59005397 9.48454122 4 6 C3.34 6 2.68 6 2 6 C2 5.34 2 4.68 2 4 C0.68 3.67 -0.64 3.34 -2 3 C-2 2.34 -2 1.68 -2 1 C-3.32 1 -4.64 1 -6 1 C-6 2.65 -6 4.3 -6 6 C-8.31 6.66 -10.62 7.32 -13 8 C-12.67 10.97 -12.34 13.94 -12 17 C-13.5625 15.5 -13.5625 15.5 -15 13 C-15 7.97950559 -14.79904409 5.98829137 -11.625 2.0625 C-7.49173969 -1.18506167 -4.98555311 -1.29624381 0 0 Z " fill="#A5C9D9" transform="translate(304,16)"/>
<path d="M0 0 C3 2 3 2 3.875 5.75 C4.25329739 9.91127129 3.34434817 12.48347774 1 16 C-2.09780948 18.06520632 -2.9540481 18.29477024 -6.5 18.3125 C-7.66015625 18.33763672 -7.66015625 18.33763672 -8.84375 18.36328125 C-11.47015897 17.92078843 -12.33557103 17.02185443 -14 15 C-13.00419922 15.01740234 -13.00419922 15.01740234 -11.98828125 15.03515625 C-5.43693213 15.11893409 -5.43693213 15.11893409 1 14 C1.14975239 6.94348748 1.14975239 6.94348748 0 0 Z " fill="#B0D0DE" transform="translate(44,52)"/>
<path d="M0 0 C0.33 0 0.66 0 1 0 C1.3482599 4.44031377 1.5154355 7.92430853 -0.4375 12 C-4.08864456 14.8496738 -7.42319053 15.29317641 -12 15 C-15.0625 13.75 -15.0625 13.75 -17 12 C-17 11.01 -17 10.02 -17 9 C-16.34 9.33 -15.68 9.66 -15 10 C-15 10.66 -15 11.32 -15 12 C-12.36 12 -9.72 12 -7 12 C-7 11.67 -7 11.34 -7 11 C-5.35 11 -3.7 11 -2 11 C-1.855625 9.9275 -1.71125 8.855 -1.5625 7.75 C-1.16250558 5.08337051 -0.72408076 2.58600271 0 0 Z " fill="#A8CCDB" transform="translate(283,52)"/>
<path d="M0 0 C0 0.33 0 0.66 0 1 C-1.093125 1.309375 -2.18625 1.61875 -3.3125 1.9375 C-5.55407994 2.58337897 -7.7869351 3.2623117 -10 4 C-11.04976964 7.14930893 -11.10131595 9.38814456 -11.0625 12.6875 C-11.05347656 13.68136719 -11.04445313 14.67523438 -11.03515625 15.69921875 C-11.02355469 16.45847656 -11.01195312 17.21773437 -11 18 C-12.96026975 16.36730848 -13.9065055 15.44978435 -14.43359375 12.9140625 C-14.44061893 8.79730511 -14.35972018 6.57555229 -12.125 3 C-8.17322183 -0.71932063 -5.2313468 -0.08437656 0 0 Z " fill="#AACCDB" transform="translate(41,49)"/>
<path d="M0 0 C1.5 1.125 1.5 1.125 3 3 C3.1875 6.1875 3.1875 6.1875 3 9 C2.01 8.67 1.02 8.34 0 8 C0 8.66 0 9.32 0 10 C-1.32 9.67 -2.64 9.34 -4 9 C-2.25 2.25 -2.25 2.25 0 0 Z " fill="#71B3D0" transform="translate(269,52)"/>
<path d="M0 0 C0.33 0 0.66 0 1 0 C1 1.65 1 3.3 1 5 C-1.31 5.66 -3.62 6.32 -6 7 C-5.67 9.97 -5.34 12.94 -5 16 C-6.5625 14.5 -6.5625 14.5 -8 12 C-7.96823234 9.22562457 -7.50364148 6.74713533 -7 4 C-3.535 3.505 -3.535 3.505 0 3 C0 2.01 0 1.02 0 0 Z " fill="#73B3D0" transform="translate(297,17)"/>
<path d="M0 0 C-1.15173355 2.46800047 -2.04783565 4.04783565 -4 6 C-4.71408334 7.98356483 -5.38617742 9.98315437 -6 12 C-7.125 10.4375 -7.125 10.4375 -8 8 C-7.25 4.3125 -7.25 4.3125 -6 1 C-4 0 -4 0 0 0 Z " fill="#8CC0D7" transform="translate(271,49)"/>
<path d="M0 0 C0.33 0 0.66 0 1 0 C1 5.28 1 10.56 1 16 C-2.3 15.67 -5.6 15.34 -9 15 C-9 14.67 -9 14.34 -9 14 C-7.576875 13.5978125 -7.576875 13.5978125 -6.125 13.1875 C-2.74732727 12.25013412 -2.74732727 12.25013412 -1 9 C-0.54605448 6.72087062 -0.54605448 6.72087062 -0.375 4.3125 C-0.30023438 3.50425781 -0.22546875 2.69601563 -0.1484375 1.86328125 C-0.09945313 1.24839844 -0.05046875 0.63351563 0 0 Z " fill="#A2A1A1" transform="translate(353,17)"/>
<path d="M0 0 C-0.66 1.32 -1.32 2.64 -2 4 C-3.43655854 4.08131463 -4.8744483 4.13933559 -6.3125 4.1875 C-7.51326172 4.23970703 -7.51326172 4.23970703 -8.73828125 4.29296875 C-11.47851584 3.93801608 -12.29171079 3.10633718 -14 1 C-12.95199219 1.01740234 -12.95199219 1.01740234 -11.8828125 1.03515625 C-10.97273438 1.04417969 -10.06265625 1.05320312 -9.125 1.0625 C-7.76761719 1.07990234 -7.76761719 1.07990234 -6.3828125 1.09765625 C-3.92124681 0.99677241 -2.42285583 0 0 0 Z " fill="#A4C9D8" transform="translate(44,66)"/>
<path d="M0 0 C0.33 0.66 0.66 1.32 1 2 C0.32453125 2.09796875 -0.3509375 2.1959375 -1.046875 2.296875 C-7.95967405 3.37079086 -7.95967405 3.37079086 -13 8 C-13.99 7.01 -14.98 6.02 -16 5 C-10.63809899 2.38592128 -5.96564796 0.50771472 0 0 Z " fill="#929190" transform="translate(139,43)"/>
<path d="M0 0 C1.98 0 3.96 0 6 0 C5.67 1.32 5.34 2.64 5 4 C4.34 4 3.68 4 3 4 C2.01 4.495 2.01 4.495 1 5 C0.34 4.34 -0.32 3.68 -1 3 C-0.67 2.01 -0.34 1.02 0 0 Z " fill="#565452" transform="translate(161,79)"/>
<path d="M0 0 C2.64 0 5.28 0 8 0 C8 0.99 8 1.98 8 3 C5.03 2.67 2.06 2.34 -1 2 C-0.67 1.34 -0.34 0.68 0 0 Z " fill="#83B8D0" transform="translate(35,50)"/>
<path d="M0 0 C2.13586678 3.20380017 2.23132175 4.01939967 2.125 7.6875 C2.10695313 8.49574219 2.08890625 9.30398437 2.0703125 10.13671875 C2.04710937 10.75160156 2.02390625 11.36648437 2 12 C0.4375 10.5 0.4375 10.5 -1 8 C-0.96823234 5.22562457 -0.50364148 2.74713533 0 0 Z " fill="#B6D3E0" transform="translate(290,21)"/>
<path d="M0 0 C1.9451 2.91765 2.45276317 4.62537285 3 8 C2.67 7.34 2.34 6.68 2 6 C0.02 6 -1.96 6 -4 6 C-3.34 4.68 -2.68 3.36 -2 2 C-1.34 2 -0.68 2 0 2 C0 1.34 0 0.68 0 0 Z " fill="#848382" transform="translate(77,65)"/>
<path d="M0 0 C0.66 0 1.32 0 2 0 C2.33 1.32 2.66 2.64 3 4 C5.31 4.33 7.62 4.66 10 5 C10 5.33 10 5.66 10 6 C8.54054712 5.91291331 7.08234132 5.80473093 5.625 5.6875 C4.81289063 5.62949219 4.00078125 5.57148437 3.1640625 5.51171875 C1 5 1 5 -1 2 C-0.67 1.34 -0.34 0.68 0 0 Z " fill="#ABCFE0" transform="translate(293,31)"/>
<path d="M0 0 C1.9375 0.75 1.9375 0.75 4 2 C4.75 4.125 4.75 4.125 5 6 C4.34 6 3.68 6 3 6 C2.67 6.66 2.34 7.32 2 8 C0.74335022 5.09399739 0 3.20395416 0 0 Z " fill="#838180" transform="translate(57,58)"/>
<path d="M0 0 C0.99 0.33 1.98 0.66 3 1 C3 2.32 3 3.64 3 5 C1.35 4.67 -0.3 4.34 -2 4 C-2 3.01 -2 2.02 -2 1 C-1.34 0.67 -0.68 0.34 0 0 Z " fill="#65B6D7" transform="translate(42,57)"/>
<path d="M0 0 C0.99 0.33 1.98 0.66 3 1 C2.67 2.65 2.34 4.3 2 6 C1.01 6 0.02 6 -1 6 C-0.67 4.02 -0.34 2.04 0 0 Z " fill="#545454" transform="translate(129,57)"/>
<path d="M0 0 C1.65 0 3.3 0 5 0 C5 0.99 5 1.98 5 3 C3.02 3 1.04 3 -1 3 C-0.67 2.01 -0.34 1.02 0 0 Z " fill="#67B5D9" transform="translate(37,64)"/>
<path d="M0 0 C0.33 0 0.66 0 1 0 C1 1.65 1 3.3 1 5 C-0.32 5.33 -1.64 5.66 -3 6 C-2.42655063 3.13275314 -2.1385485 2.1385485 0 0 Z " fill="#66B5D8" transform="translate(269,52)"/>
</svg>
